<svg height="512" viewBox="0 0 512 512" width="512" xmlns="http://www.w3.org/2000/svg"><g id="Users_Male_And_Female" data-name="Users Male And Female"><g id="Flat"><path d="m318.413 80.288a5.764 5.764 0 0 1 -6.13-5.445 70.673 70.673 0 0 1 17.541-49.921 73.949 73.949 0 0 1 110.882.182 70.5 70.5 0 0 1 16.794 56 5.771 5.771 0 0 1 -7.558 4.671l-19.924-6.714c-7.046-3.964-12.128-4.088-17.542-.433a51.145 51.145 0 0 1 -56.913.025l-.039-.025c-5.416-3.656-10.5-3.529-17.543.433z" fill="#525252"/><path d="m440.706 25.1a72.463 72.463 0 0 0 -12.027-11 83.943 83.943 0 0 1 -72.679 41.9 83.619 83.619 0 0 1 -39.1-9.656 70.068 70.068 0 0 0 -4.619 28.49 5.774 5.774 0 0 0 6.131 5.454l19.568-1.224c7.046-3.962 12.127-4.089 17.543-.433l.039.025a51.145 51.145 0 0 0 56.913-.025c5.414-3.655 10.5-3.531 17.542.433l13.33 4.492a11.189 11.189 0 0 0 14.795-10.182 70.675 70.675 0 0 0 -17.436-48.274z" fill="#3f3f3f"/><path d="m384 240a38.873 38.873 0 0 1 -27.884-11.847 42.69 42.69 0 0 1 -12.116-30.12v-11.255l8-2.908v-39.87h64v39.87l8 2.908v11.255c0 23.14-17.944 41.967-40 41.967z" fill="#fac7b7"/><path d="m385.186 176c-28.447 0-53.2-17.888-61.608-44.511l-.191-.72-9.677-44.827q-.541-2.585-.9-5.3l-.715-5.372 18.046-10.15c12.294-6.915 23.848-6.83 34.338.25a35.157 35.157 0 0 0 39.087-.025 34.2 34.2 0 0 1 36.434-1.345l18.771 8-1.271 9.105c-.229 1.646-.508 3.257-.829 4.789l-9.766 45.24-.113.355c-8.403 26.623-33.161 44.511-61.606 44.511z" fill="#ffdecf"/><path d="m512 234.71v85.29a16 16 0 0 1 -16 16h-240v-101.29a39.978 39.978 0 0 1 32.84-39.36l63.16-11.48v14.16c0 6.69 3.16 13.05 8.9 17.93a35.6 35.6 0 0 0 23.1 8.04c17.65 0 32-11.65 32-25.97v-14.16l63.16 11.48a39.978 39.978 0 0 1 32.84 39.36z" fill="#0277bd"/><path d="m491.094 199.552a198.576 198.576 0 0 1 -188.594 136.448h193.5a16 16 0 0 0 16-16v-85.29a39.983 39.983 0 0 0 -20.906-35.158z" fill="#0469bc"/><path d="m248.421 272h-176.842a31.616 31.616 0 0 1 -31.579-31.579v-88.421a120 120 0 0 1 204.854-84.852 119.187 119.187 0 0 1 35.146 84.852v88.421a31.616 31.616 0 0 1 -31.579 31.579z" fill="#525252"/><path d="m464 264v72h-16v-72a8 8 0 0 1 16 0z" fill="#01579b"/><path d="m320 264v72h-16v-72a8 8 0 0 1 16 0z" fill="#01579b"/><path d="m247.668 70.069c.212 3.284.332 6.593.332 9.931a152.084 152.084 0 0 1 -208 141.348v19.073a31.616 31.616 0 0 0 31.579 31.579h176.842a31.616 31.616 0 0 0 31.579-31.579v-88.421a119.116 119.116 0 0 0 -32.332-81.931z" fill="#3f3f3f"/><path d="m160 377.082-3.786-2.035c-2.132-1.147-52.214-28.467-52.214-64.647v-25.758l16-3.2v-41.442h80v41.441l16 3.2v25.759c0 36.18-50.082 63.5-52.214 64.647z" fill="#fac7b7"/><path d="m160 272a72.081 72.081 0 0 1 -72-72v-40h144v40a72.081 72.081 0 0 1 -72 72z" fill="#ffdecf"/><path d="m120 240a120.72 120.72 0 0 1 -21.011-1.836 71.973 71.973 0 0 0 133.011-38.164v-36.85a120.038 120.038 0 0 1 -112 76.85z" fill="#ffd3c2"/><path d="m224 168h-128a16 16 0 0 1 -16-16v-15.726a8.183 8.183 0 0 1 7.468-8.257 8 8 0 0 1 8.532 7.983v12a4 4 0 0 0 4 4h120a4 4 0 0 0 4-4v-11.726a8.183 8.183 0 0 1 7.468-8.257 8 8 0 0 1 8.532 7.983v16a16 16 0 0 1 -16 16z" fill="#262626"/><path d="m320 351.35v144.65a16 16 0 0 1 -16 16h-288a16 16 0 0 1 -16-16v-144.65a56.149 56.149 0 0 1 45.02-54.91l74.98-15v28.96c0 20.07 26.09 39.98 40 48.38 13.9-8.4 40-28.3 40-48.38v-28.96l74.98 15a56.149 56.149 0 0 1 45.02 54.91z" fill="#ce93d8"/><path d="m360 144a103.842 103.842 0 0 1 -33.792-5.618c10.217 22.77 33.064 37.618 58.978 37.618 28.445 0 53.2-17.888 61.606-44.511l11.594-53.541a18.062 18.062 0 0 0 -.639-2.352 104.041 104.041 0 0 1 -97.747 68.404z" fill="#ffd3c2"/><circle cx="120" cy="68" fill="#848484" r="16"/><circle cx="148" cy="100" fill="#848484" r="12"/><circle cx="114.667" cy="194.667" fill="#fff5f2" r="10.667"/><circle cx="133.333" cy="216" fill="#fff5f2" r="8"/><circle cx="341.333" cy="82.667" fill="#fff5f2" r="10.667"/><circle cx="360" cy="104" fill="#fff5f2" r="8"/><circle cx="322.667" cy="226.667" fill="#4baee0" r="10.667"/><circle cx="341.333" cy="248" fill="#4baee0" r="8"/><circle cx="64" cy="328" fill="#e2b9ea" r="16"/><circle cx="92" cy="360" fill="#e2b9ea" r="12"/><circle cx="360" cy="24" fill="#848484" r="8"/><path d="m278.721 297.337c-10.55 103.971-85.328 188.952-184.031 214.663h209.31a16 16 0 0 0 16-16v-144.65a56.157 56.157 0 0 0 -41.279-54.013z" fill="#c087cc"/><g fill="#ba68c8"><path d="m64 376v136h-16v-136a8 8 0 0 1 16 0z"/><path d="m272 376v136h-16v-136a8 8 0 0 1 16 0z"/><path d="m160 392a8.093 8.093 0 0 1 -5.66-2.34 8.331 8.331 0 0 1 -.99-1.221 7.8 7.8 0 0 1 -1.19-2.879 7.69 7.69 0 0 1 0-3.121 7.893 7.893 0 0 1 .45-1.5 7.986 7.986 0 0 1 .74-1.379 8.375 8.375 0 0 1 .99-1.22 7.766 7.766 0 0 1 1.22-.99 8.032 8.032 0 0 1 1.38-.741 7.919 7.919 0 0 1 1.5-.449 8.053 8.053 0 0 1 7.22 2.18 8.375 8.375 0 0 1 .99 1.22 7.986 7.986 0 0 1 .74 1.379 7.893 7.893 0 0 1 .45 1.5 7.452 7.452 0 0 1 .16 1.561 7.989 7.989 0 0 1 -8 8z"/><path d="m160 424a7.443 7.443 0 0 1 -1.56-.16 7.85 7.85 0 0 1 -1.5-.45 8.032 8.032 0 0 1 -1.38-.741 7.817 7.817 0 0 1 -1.22-.989 7.728 7.728 0 0 1 -.99-1.221 7.8 7.8 0 0 1 -1.19-2.879 7.69 7.69 0 0 1 0-3.121 7.893 7.893 0 0 1 .45-1.5 7.986 7.986 0 0 1 .74-1.379 7.766 7.766 0 0 1 .99-1.22 8.015 8.015 0 0 1 11.32 0 8.375 8.375 0 0 1 .99 1.22 7.986 7.986 0 0 1 .74 1.379 7.893 7.893 0 0 1 .45 1.5 7.69 7.69 0 0 1 0 3.121 7.8 7.8 0 0 1 -1.19 2.879 8.331 8.331 0 0 1 -.99 1.221 7.817 7.817 0 0 1 -1.22.989 8.032 8.032 0 0 1 -1.38.741 7.85 7.85 0 0 1 -1.5.45 7.443 7.443 0 0 1 -1.56.16z"/><path d="m160 456a7.443 7.443 0 0 1 -1.56-.16 7.85 7.85 0 0 1 -1.5-.45 8.032 8.032 0 0 1 -1.38-.741 7.817 7.817 0 0 1 -1.22-.989 7.728 7.728 0 0 1 -.99-1.221 7.8 7.8 0 0 1 -1.19-2.879 7.443 7.443 0 0 1 -.16-1.56 8.05 8.05 0 0 1 2.34-5.66 7.766 7.766 0 0 1 1.22-.99 8.032 8.032 0 0 1 1.38-.741 7.919 7.919 0 0 1 1.5-.449 8 8 0 1 1 1.56 15.84z"/><path d="m160 488a7.443 7.443 0 0 1 -1.56-.16 7.85 7.85 0 0 1 -1.5-.45 8.032 8.032 0 0 1 -1.38-.741 7.817 7.817 0 0 1 -1.22-.989 7.728 7.728 0 0 1 -.99-1.221 7.8 7.8 0 0 1 -1.19-2.879 7.443 7.443 0 0 1 -.16-1.56 8.05 8.05 0 0 1 2.34-5.66 7.766 7.766 0 0 1 1.22-.99 8.032 8.032 0 0 1 1.38-.741 7.919 7.919 0 0 1 1.5-.449 8 8 0 1 1 1.56 15.84z"/></g></g></g></svg>